<?xml version="1.0" standalone="no"?>
<!DOCTYPE svg PUBLIC "-//W3C//DTD SVG 20010904//EN"
 "http://www.w3.org/TR/2001/REC-SVG-20010904/DTD/svg10.dtd">
<svg version="1.0" xmlns="http://www.w3.org/2000/svg"
 width="1796.000000pt" height="1796.000000pt" viewBox="0 0 1796.000000 1796.000000"
 preserveAspectRatio="xMidYMid meet">
<metadata>
Created by potrace 1.11, written by Peter Selinger 2001-2013
</metadata>
<g transform="translate(0.000000,1796.000000) scale(0.100000,-0.100000)"
fill="#000000" stroke="none">
<path d="M3828 15115 c-2 -1 -57 -6 -123 -10 -66 -4 -136 -9 -155 -10 -19 -2
-75 -6 -125 -10 -49 -3 -108 -8 -130 -10 -22 -2 -80 -6 -130 -10 -49 -3 -108
-8 -130 -10 -22 -2 -76 -7 -120 -10 -44 -3 -107 -7 -140 -10 -97 -9 -165 -14
-245 -20 -73 -5 -126 -10 -240 -20 -30 -3 -91 -7 -135 -10 -44 -3 -98 -7 -120
-10 -36 -4 -105 -9 -250 -20 -69 -5 -191 -15 -245 -20 -25 -2 -79 -7 -120 -10
-41 -3 -100 -8 -130 -10 -96 -8 -183 -15 -250 -20 -82 -6 -201 -17 -345 -30
-27 -2 -86 -7 -130 -10 -201 -15 -307 -26 -350 -37 -107 -27 -182 -94 -206
-182 -26 -94 11 -285 86 -450 13 -28 43 -96 68 -151 61 -136 124 -276 177
-390 17 -38 68 -149 112 -245 44 -96 94 -204 110 -240 17 -36 79 -171 138
-300 152 -333 524 -1137 577 -1250 40 -85 63 -136 68 -150 1 -3 15 -34 32 -70
17 -36 44 -94 61 -130 16 -36 50 -109 76 -163 25 -54 46 -100 46 -101 0 -2 23
-53 51 -112 43 -92 265 -570 379 -819 18 -38 47 -101 65 -140 18 -38 45 -97
60 -130 28 -62 47 -102 134 -289 28 -59 51 -110 51 -111 0 -2 29 -65 65 -140
36 -76 65 -139 65 -140 0 -2 19 -43 41 -92 23 -48 57 -122 76 -163 19 -41 49
-104 65 -140 17 -36 57 -121 88 -190 32 -69 77 -165 100 -215 23 -49 51 -109
61 -133 11 -24 42 -91 70 -148 27 -58 49 -106 49 -108 0 -2 22 -50 49 -107 27
-57 63 -135 81 -174 78 -168 211 -457 250 -540 23 -49 50 -108 60 -130 283
-618 426 -917 466 -972 141 -197 320 -292 561 -298 110 -3 225 14 403 60 58
15 112 28 120 30 18 4 611 155 725 185 44 12 87 23 95 25 8 2 96 24 195 50 99
25 187 48 195 49 8 2 42 11 75 20 33 9 71 19 85 22 14 2 39 9 55 14 17 5 109
29 205 54 402 103 532 137 555 146 14 5 25 8 25 6 0 -2 21 3 48 11 26 8 57 16
70 19 12 2 84 21 160 41 180 47 393 103 412 108 8 2 103 26 210 54 363 95 401
104 410 95 7 -8 147 -258 292 -524 20 -36 50 -89 67 -118 17 -29 31 -54 31
-56 0 -2 34 -63 75 -136 41 -73 75 -134 75 -136 0 -1 15 -29 34 -61 18 -32 44
-78 58 -103 66 -119 281 -504 308 -549 16 -29 30 -53 30 -55 0 -3 27 -51 130
-231 9 -16 32 -57 50 -90 18 -33 49 -89 70 -125 20 -36 48 -85 62 -110 14 -25
68 -121 122 -213 53 -92 96 -170 96 -172 0 -2 24 -43 53 -92 30 -48 67 -113
83 -143 16 -30 33 -59 37 -65 4 -5 62 -102 128 -215 242 -413 354 -552 506
-627 76 -37 79 -38 192 -38 141 0 192 9 401 72 121 36 830 279 885 302 11 5
49 19 85 31 36 12 74 26 85 31 11 4 65 24 120 43 184 63 1903 677 2052 733 23
8 43 14 45 12 2 -1 13 3 26 10 12 6 77 31 145 55 163 58 433 155 802 289 99
35 394 142 655 236 569 206 815 296 975 358 221 85 314 145 333 216 11 41 -10
125 -45 180 -46 73 -420 580 -1409 1907 -35 47 -67 90 -72 95 -4 6 -34 46 -67
90 -60 82 -523 702 -538 720 -48 61 -147 198 -147 204 0 4 21 13 48 19 26 7
54 14 64 16 9 3 171 46 360 96 188 51 350 94 358 96 8 2 58 15 110 29 52 14
102 27 111 29 14 4 267 71 399 107 25 7 50 13 55 15 6 1 37 9 70 18 33 9 67
18 75 20 33 8 299 79 360 96 36 10 146 39 245 65 243 63 291 82 341 131 37 36
42 47 40 80 -3 41 -32 106 -63 139 -22 23 -276 336 -448 550 -66 83 -123 152
-126 155 -3 3 -106 131 -229 285 -124 154 -229 285 -235 292 -5 6 -22 27 -36
45 -49 61 -339 423 -352 438 -7 8 -77 96 -157 195 -548 683 -620 762 -748 826
-61 30 -76 33 -157 33 -95 1 -104 0 -340 -40 -82 -14 -162 -27 -177 -30 -43
-6 -75 -12 -178 -29 -94 -16 -126 -21 -185 -31 -16 -2 -55 -9 -85 -14 -53 -9
-92 -16 -155 -26 -16 -2 -55 -9 -85 -14 -30 -5 -70 -12 -87 -15 -18 -3 -46 -7
-63 -10 -16 -3 -45 -7 -62 -10 -18 -3 -44 -7 -58 -10 -14 -3 -40 -7 -57 -10
-18 -3 -46 -7 -62 -10 -53 -9 -276 -46 -306 -51 -16 -2 -41 -6 -55 -9 -14 -3
-38 -7 -55 -9 -624 -101 -792 -134 -866 -172 -45 -22 -97 -73 -101 -97 -6 -46
-3 -77 8 -110 13 -37 269 -408 286 -415 4 -2 8 -8 8 -12 0 -5 55 -87 123 -182
67 -95 129 -183 137 -195 23 -33 552 -782 644 -911 45 -62 88 -123 96 -136 8
-12 62 -89 120 -170 58 -81 112 -158 120 -169 55 -80 245 -349 270 -383 16
-23 30 -45 30 -50 0 -9 -90 -31 -630 -160 -242 -58 -693 -166 -950 -228 -289
-69 -325 -78 -343 -82 -10 -2 -27 -6 -37 -9 -10 -3 -28 -8 -39 -10 -35 -8 -52
-12 -186 -44 -71 -17 -206 -49 -300 -71 -149 -36 -206 -49 -225 -55 -3 -1 -32
-7 -65 -15 -76 -17 -63 -14 -185 -45 -58 -14 -114 -28 -125 -29 -11 -2 -27 -6
-35 -10 -8 -3 -26 -7 -40 -10 -14 -2 -131 -30 -260 -61 -129 -31 -242 -58
-250 -60 -54 -12 -206 -49 -330 -79 -80 -19 -156 -37 -170 -40 -14 -2 -135
-31 -270 -64 -312 -76 -500 -121 -526 -126 -11 -2 -38 -9 -60 -15 -61 -18
-336 -82 -369 -87 -30 -5 -31 -3 -264 388 -129 216 -244 409 -256 428 -13 19
-265 440 -560 935 -296 495 -584 977 -640 1070 -56 94 -344 575 -640 1070
-295 495 -545 911 -554 925 -8 14 -21 34 -27 45 -6 11 -136 229 -289 485 -153
256 -321 537 -373 625 -52 88 -105 176 -118 195 -17 27 -291 484 -384 641 -50
85 -96 163 -105 177 -6 9 -37 62 -69 117 -33 55 -88 143 -124 195 -146 216
-209 247 -485 248 -86 0 -157 -1 -159 -3z m108 -512 c7 -5 96 -154 199 -333
103 -179 191 -329 195 -335 4 -5 20 -32 35 -60 35 -64 133 -232 154 -265 8
-14 16 -27 16 -30 0 -4 96 -169 174 -300 15 -25 30 -52 34 -60 4 -8 15 -28 26
-45 18 -30 255 -437 293 -505 11 -19 62 -107 113 -195 51 -88 103 -179 116
-201 101 -174 192 -331 200 -344 14 -23 348 -599 373 -645 59 -105 400 -693
417 -717 10 -15 19 -29 19 -32 0 -2 43 -77 95 -166 52 -89 95 -164 95 -166 0
-3 11 -21 24 -42 22 -35 395 -677 448 -772 14 -25 40 -70 58 -100 18 -30 40
-68 50 -85 9 -16 192 -331 405 -700 594 -1024 602 -1039 600 -1074 -3 -50 -22
-63 -125 -85 -20 -5 -187 -45 -250 -60 -24 -6 -272 -65 -410 -98 -69 -16 -132
-31 -140 -33 -154 -38 -320 -78 -339 -81 -13 -3 -115 -27 -225 -54 -111 -27
-262 -63 -336 -80 -74 -18 -142 -34 -150 -36 -8 -2 -73 -17 -145 -34 -71 -17
-137 -33 -145 -35 -284 -68 -614 -147 -630 -150 -16 -3 -188 -45 -315 -76 -44
-10 -89 -21 -100 -23 -11 -3 -40 -9 -65 -15 -25 -6 -62 -11 -83 -11 -37 0 -37
0 -78 88 -51 107 -116 244 -227 472 -46 96 -111 231 -144 300 -133 277 -190
394 -283 585 -53 110 -123 254 -155 320 -128 266 -202 419 -290 600 -51 105
-121 249 -155 320 -35 72 -106 220 -160 330 -105 216 -208 428 -315 650 -99
205 -215 444 -320 660 -51 105 -125 258 -165 340 -67 139 -126 259 -322 665
-42 85 -118 243 -171 350 -52 107 -125 258 -162 335 -69 143 -165 340 -332
685 -221 453 -285 586 -381 780 -100 204 -126 287 -98 305 12 7 40 10 176 20
44 3 91 8 105 10 14 2 68 6 120 10 52 4 106 8 120 10 14 2 61 6 105 10 44 3
96 8 115 10 19 2 71 7 115 10 44 3 100 8 125 10 25 2 74 7 110 10 36 3 85 8
110 10 52 5 149 13 235 20 33 3 80 7 105 10 82 8 164 15 240 21 41 3 91 7 110
9 78 7 178 16 230 20 30 3 75 7 100 10 25 2 79 7 120 10 41 3 91 8 110 10 19
2 73 7 120 11 47 4 99 8 115 9 17 2 71 6 120 10 50 4 91 8 92 9 7 6 170 5 179
-1z m11528 -2926 c29 -16 100 -99 257 -302 120 -153 224 -286 231 -295 7 -8
53 -67 103 -130 49 -63 92 -117 95 -120 3 -3 18 -23 35 -45 16 -22 32 -42 35
-45 3 -3 69 -87 147 -187 78 -100 149 -190 157 -200 8 -10 37 -45 63 -79 26
-33 60 -76 75 -95 257 -325 423 -538 431 -557 21 -45 -52 -87 -213 -122 -30
-7 -190 -46 -355 -87 -165 -41 -309 -76 -320 -77 -11 -2 -65 -15 -120 -29 -89
-24 -938 -234 -975 -242 -8 -2 -61 -15 -117 -29 -56 -14 -108 -26 -117 -26 -8
0 -68 73 -133 163 -65 89 -121 167 -126 172 -5 6 -104 141 -220 301 -117 160
-220 302 -229 315 -70 96 -153 210 -269 369 -73 102 -137 190 -142 195 -4 6
-53 73 -109 150 -56 77 -149 205 -208 285 -215 291 -226 312 -195 344 9 9 24
17 33 18 9 0 22 2 27 3 16 2 98 17 120 21 10 2 37 6 60 10 22 3 58 9 80 14 22
5 63 12 90 16 28 3 53 8 56 10 3 2 34 8 70 14 35 5 75 12 89 15 14 2 104 18
200 35 96 17 209 37 250 45 109 21 130 25 175 31 22 3 56 9 75 14 19 5 55 12
80 15 25 4 74 13 110 20 36 7 85 16 110 20 25 4 101 18 170 31 69 14 141 27
160 30 19 3 62 11 95 19 88 19 125 17 169 -8z m-766 -3366 c16 -1 65 -48 88
-86 19 -31 160 -229 279 -390 141 -194 231 -317 245 -338 8 -13 47 -65 85
-117 81 -109 232 -315 498 -680 103 -140 190 -259 194 -265 27 -32 494 -677
515 -710 57 -92 43 -116 -101 -167 -55 -19 -792 -270 -1081 -368 -80 -27 -392
-133 -695 -236 -302 -102 -581 -197 -620 -210 -38 -12 -297 -100 -575 -194
-278 -95 -550 -187 -605 -205 -91 -31 -737 -250 -1160 -395 -93 -31 -235 -80
-315 -108 -80 -28 -170 -59 -200 -69 -67 -24 -116 -16 -165 25 -31 25 -95 102
-122 147 -11 17 -42 70 -134 223 -9 15 -25 43 -37 62 -11 19 -102 175 -202
345 -101 171 -191 324 -200 340 -29 50 -431 739 -441 755 -5 8 -72 125 -150
260 -146 254 -185 321 -206 355 -7 11 -16 27 -20 35 -4 8 -67 117 -140 243
-73 125 -133 229 -133 232 0 2 -14 26 -30 52 -17 26 -27 50 -23 54 5 4 116 35
248 69 132 34 299 77 370 96 72 19 138 37 148 39 10 2 27 7 37 10 10 3 27 7
37 10 25 5 242 61 328 84 39 11 81 22 95 25 40 8 412 105 446 116 17 6 40 12
50 14 25 5 423 108 949 246 61 16 182 47 270 70 88 23 221 57 295 77 74 19
142 36 150 38 14 3 173 45 250 66 19 5 45 12 58 15 12 2 89 22 170 44 159 42
458 120 482 125 8 2 42 11 75 20 33 9 164 43 290 76 320 82 562 146 615 163
25 7 52 12 60 10 8 -1 21 -3 28 -3z"/>
</g>
</svg>
